<?xml version="1.0" encoding="UTF-8" standalone="no"?>
<svg
   height="340.36pt"
   width="336.44pt"
   version="1.1"
   viewBox="0 0 336.435821 340.36"
   id="svg48"
   sodipodi:docname="sticker_sage.svg"
   inkscape:version="1.2.2 (b0a8486541, 2022-12-01)"
   xmlns:inkscape="http://www.inkscape.org/namespaces/inkscape"
   xmlns:sodipodi="http://sodipodi.sourceforge.net/DTD/sodipodi-0.dtd"
   xmlns="http://www.w3.org/2000/svg"
   xmlns:svg="http://www.w3.org/2000/svg">
  <defs
     id="defs52" />
  <sodipodi:namedview
     id="namedview50"
     pagecolor="#ffffff"
     bordercolor="#000000"
     borderopacity="0.25"
     inkscape:showpageshadow="2"
     inkscape:pageopacity="0.0"
     inkscape:pagecheckerboard="0"
     inkscape:deskcolor="#d1d1d1"
     inkscape:document-units="pt"
     showgrid="false"
     inkscape:zoom="1.8267424"
     inkscape:cx="200.63037"
     inkscape:cy="227.18037"
     inkscape:window-width="1920"
     inkscape:window-height="995"
     inkscape:window-x="0"
     inkscape:window-y="0"
     inkscape:window-maximized="1"
     inkscape:current-layer="svg48" />
  <path
     stroke-linejoin="round"
     d="m338.4-2.02v344.4h-340.36v-344.4z"
     stroke-linecap="round"
     fill="#00f"
     id="path2"
     style="fill:#80d4e6;fill-opacity:1" />
  <g
     stroke-linejoin="round"
     transform="matrix(.81748 0 0 .81748 -270.59 4.0271)"
     stroke="#fff"
     stroke-linecap="round"
     fill="none"
     id="g30">
    <g
       stroke-width="15"
       id="g24">
      <path
         d="m489.47 146.85c38.671 0 80.786 2.6614 117 7.3936 36.213 4.7322 63.633 11.157 76.175 17.85"
         id="path4" />
      <path
         d="m602.88 303.27c-6.2124-3.3149-14.074-9.9905-23.136-19.645-9.0615-9.6542-19.146-22.099-29.678-36.623-10.531-14.524-21.304-30.844-31.701-48.026s-20.218-34.892-28.898-52.117"
         id="path6" />
      <path
         d="m457.02 303.27c-12.542-6.7-16.174-26.95-10.09-56.27s21.402-65.37 42.542-100.15"
         id="path8" />
      <path
         d="m489.47 146.85c-17.52-34.77-29.361-65.494-32.885-85.351s1.548-27.261 14.095-20.569"
         id="path10" />
      <path
         d="m489.47 146.85c21.15-34.77 46.44-65.494 70.26-85.351s44.27-27.261 56.81-20.569"
         id="path12" />
      <path
         d="m682.65 172.1c-1.384 26.585-9.4847 52.707-23.485 75.73s-33.412 42.146-56.277 55.438"
         id="path14" />
      <path
         d="m602.88 303.27c-22.865 13.292-48.387 20.292-73.99 20.292s-50.396-6.9994-71.877-20.292"
         id="path16" />
      <path
         d="m457.02 303.27c-21.48-13.3-38.901-32.42-50.504-55.44-11.603-23.03-16.984-49.15-15.6-75.73 1.384-26.59 9.484-52.71 23.484-75.732 14-23.023 33.412-42.146 56.282-55.438"
         id="path18" />
      <path
         d="m470.68 40.925c22.865-13.292 48.387-20.292 73.99-20.292s50.396 6.9994 71.877 20.292"
         id="path20" />
      <path
         d="m616.54 40.925c21.481 13.292 38.902 32.415 50.505 55.438s16.984 49.145 15.6 75.73"
         id="path22" />
    </g>
    <path
       d="m584.09 197.34c-10.474 17.225-22.07 33.629-34.125 48.274-12.054 14.645-24.332 27.246-36.132 37.082-11.799 9.8358-22.89 16.715-32.638 20.244-9.7478 3.5291-17.963 3.6393-24.175 0.32438"
       stroke-width="7.5"
       id="path26" />
    <path
       d="m616.54 40.925c12.542 6.6924 16.174 26.946 10.09 56.268-6.0839 29.322-21.398 65.369-42.544 100.14"
       stroke-width="7.5"
       id="path28" />
  </g>
  <g
     stroke-linejoin="round"
     transform="matrix(.89361 0 0 .89361 -404.89 106.41)"
     stroke="#030303"
     stroke-width="4"
     fill="none"
     id="g38">
    <polyline
       transform="matrix(3.75 0 0 3.75 344.95 81.91)"
       points="55 10 38 10 38 20 53 20 53 30 28 30"
       id="polyline32" />
    <polyline
       transform="matrix(3.75 0 0 3.75 344.95 81.91)"
       points="97 30 85 30 75 10 60 10 60 30 75 30 85 10 100 10 100 40 80 40"
       id="polyline34" />
    <polyline
       transform="matrix(3.75 0 0 3.75 344.95 81.91)"
       points="132 30 107 30 107 10 122 10 122 20 110 20"
       id="polyline36" />
  </g>
  <g
     stroke-linejoin="round"
     transform="matrix(.89361 0 0 .89361 -411.34 113.66)"
     stroke="#fff"
     stroke-width="4"
     fill="none"
     id="g46">
    <polyline
       transform="matrix(3.75 0 0 3.75 344.95 81.91)"
       points="55 10 38 10 38 20 53 20 53 30 28 30"
       id="polyline40" />
    <polyline
       transform="matrix(3.75 0 0 3.75 344.95 81.91)"
       points="97 30 85 30 75 10 60 10 60 30 75 30 85 10 100 10 100 40 80 40"
       id="polyline42" />
    <polyline
       transform="matrix(3.75 0 0 3.75 344.95 81.91)"
       points="132 30 107 30 107 10 122 10 122 20 110 20"
       id="polyline44" />
  </g>
</svg>
