<?xml version="1.0" encoding="UTF-8" standalone="no"?>
<!-- Created with Inkscape (http://www.inkscape.org/) -->

<svg
   width="45.155556mm"
   height="45.155556mm"
   viewBox="0 0 45.155556 45.155556"
   version="1.1"
   id="svg531"
   inkscape:version="1.4 (e7c3feb1, 2024-10-09)"
   sodipodi:docname="cizgeler.svg"
   xmlns:inkscape="http://www.inkscape.org/namespaces/inkscape"
   xmlns:sodipodi="http://sodipodi.sourceforge.net/DTD/sodipodi-0.dtd"
   xmlns="http://www.w3.org/2000/svg"
   xmlns:svg="http://www.w3.org/2000/svg">
  <sodipodi:namedview
     id="namedview533"
     pagecolor="#ffffff"
     bordercolor="#000000"
     borderopacity="0.25"
     inkscape:showpageshadow="2"
     inkscape:pageopacity="0.0"
     inkscape:pagecheckerboard="0"
     inkscape:deskcolor="#d1d1d1"
     inkscape:document-units="mm"
     showgrid="false"
     inkscape:zoom="4.9804689"
     inkscape:cx="85.333331"
     inkscape:cy="85.333331"
     inkscape:window-width="1872"
     inkscape:window-height="1027"
     inkscape:window-x="53"
     inkscape:window-y="25"
     inkscape:window-maximized="1"
     inkscape:current-layer="layer1" />
  <defs
     id="defs528" />
  <g
     inkscape:label="Katman 1"
     inkscape:groupmode="layer"
     id="layer1"
     transform="translate(-79.527171,-72.003646)">
    <g
       id="surface19313"
       style="stroke:#000000;stroke-opacity:1"
       transform="matrix(0.35277777,0,0,0.35277777,96.514396,44.90442)"
       inkscape:export-filename="cizgeler.png"
       inkscape:export-xdpi="1000"
       inkscape:export-ydpi="1000">
      <g
         id="g319"
         inkscape:export-filename="cizgeler.png"
         inkscape:export-xdpi="393.75"
         inkscape:export-ydpi="393.75"
         transform="translate(-49.152766,75.816704)">
        <path
           style="fill:#ece6e2;fill-opacity:1;fill-rule:evenodd;stroke:none;stroke-width:0.1;stroke-dasharray:none;stroke-opacity:1"
           d="M 129,65 C 129,29.652344 100.34766,1 65,1 29.652344,1 1,29.652344 1,65 c 0,35.34766 28.652344,64 64,64 35.34766,0 64,-28.65234 64,-64 z m 0,0"
           id="path2"
           inkscape:export-filename="./path2.png"
           inkscape:export-xdpi="96"
           inkscape:export-ydpi="96" />
        <path
           style="fill:#000000;fill-opacity:1;fill-rule:evenodd;stroke:#000000;stroke-opacity:1"
           d="m 66.800781,33 c 0,-2.398437 -3.601562,-2.398437 -3.601562,0 0,2.398438 3.601562,2.398438 3.601562,0 z m 0,0"
           id="path4" />
        <path
           style="fill:#000000;fill-opacity:1;fill-rule:evenodd;stroke:#000000;stroke-opacity:1"
           d="m 98.800781,33 c 0,-2.398437 -3.601562,-2.398437 -3.601562,0 0,2.398438 3.601562,2.398438 3.601562,0 z m 0,0"
           id="path6" />
        <path
           style="fill:#000000;fill-opacity:1;fill-rule:evenodd;stroke:#000000;stroke-opacity:1"
           d="m 34.800781,33 c 0,-2.398437 -3.601562,-2.398437 -3.601562,0 0,2.398438 3.601562,2.398438 3.601562,0 z m 0,0"
           id="path8" />
        <path
           style="fill:#000000;fill-opacity:1;fill-rule:evenodd;stroke:#000000;stroke-opacity:1"
           d="m 34.800781,97 c 0,-2.398437 -3.601562,-2.398437 -3.601562,0 0,2.398438 3.601562,2.398438 3.601562,0 z m 0,0"
           id="path10" />
        <path
           style="fill:#000000;fill-opacity:1;fill-rule:evenodd;stroke:#000000;stroke-opacity:1"
           d="m 66.800781,97 c 0,-2.398437 -3.601562,-2.398437 -3.601562,0 0,2.398438 3.601562,2.398438 3.601562,0 z m 0,0"
           id="path12" />
        <path
           style="fill:#000000;fill-opacity:1;fill-rule:evenodd;stroke:#000000;stroke-opacity:1"
           d="m 98.800781,97 c 0,-2.398437 -3.601562,-2.398437 -3.601562,0 0,2.398438 3.601562,2.398438 3.601562,0 z m 0,0"
           id="path14" />
        <path
           style="fill:none;stroke:#000000;stroke-width:1.2;stroke-linecap:butt;stroke-linejoin:round;stroke-miterlimit:10;stroke-opacity:1"
           d="M 448,720 384,656"
           transform="matrix(1,0,0,-1,-351,753)"
           id="path16" />
        <path
           style="fill:none;stroke:#000000;stroke-width:1.2;stroke-linecap:butt;stroke-linejoin:round;stroke-miterlimit:10;stroke-opacity:1"
           d="M 448,720 416,656"
           transform="matrix(1,0,0,-1,-351,753)"
           id="path18" />
        <path
           style="fill:none;stroke:#000000;stroke-width:1.2;stroke-linecap:butt;stroke-linejoin:round;stroke-miterlimit:10;stroke-opacity:1"
           d="M 448,720 V 656"
           transform="matrix(1,0,0,-1,-351,753)"
           id="path20" />
        <path
           style="fill:none;stroke:#000000;stroke-width:1.2;stroke-linecap:butt;stroke-linejoin:round;stroke-miterlimit:10;stroke-opacity:1"
           d="M 416,720 V 656"
           transform="matrix(1,0,0,-1,-351,753)"
           id="path22" />
        <path
           style="fill:none;stroke:#000000;stroke-width:1.2;stroke-linecap:butt;stroke-linejoin:round;stroke-miterlimit:10;stroke-opacity:1"
           d="m 416,720 32,-64"
           transform="matrix(1,0,0,-1,-351,753)"
           id="path24" />
        <path
           style="fill:none;stroke:#000000;stroke-width:1.2;stroke-linecap:butt;stroke-linejoin:round;stroke-miterlimit:10;stroke-opacity:1"
           d="M 416,720 384,656"
           transform="matrix(1,0,0,-1,-351,753)"
           id="path26" />
        <path
           style="fill:none;stroke:#000000;stroke-width:1.2;stroke-linecap:butt;stroke-linejoin:round;stroke-miterlimit:10;stroke-opacity:1"
           d="m 384,720 32,-64"
           transform="matrix(1,0,0,-1,-351,753)"
           id="path28" />
        <path
           style="fill:none;stroke:#000000;stroke-width:1.2;stroke-linecap:butt;stroke-linejoin:round;stroke-miterlimit:10;stroke-opacity:1"
           d="M 384,720 V 656"
           transform="matrix(1,0,0,-1,-351,753)"
           id="path30" />
        <path
           style="fill:none;stroke:#000000;stroke-width:1.2;stroke-linecap:butt;stroke-linejoin:round;stroke-miterlimit:10;stroke-opacity:1"
           d="m 384,720 64,-64"
           transform="matrix(1,0,0,-1,-351,753)"
           id="path32" />
      </g>
    </g>
  </g>
</svg>
